<svg width="90" height="74" viewBox="0 0 90 74" fill="none" xmlns="http://www.w3.org/2000/svg">
<g clip-path="url(#clip0_1153_15021)">
<path d="M38.4492 54.2387V74H51.177L51.1155 21.9054H38.4492V52.6157V54.2387Z" fill="#ECECEC"/>
<path d="M9.17578 47.3441V74H38.4498V21.9054L9.17578 22.0041V44.8679" fill="#F7F7F7"/>
<path fill-rule="evenodd" clip-rule="evenodd" d="M9.19141 53.3972V73.9609H81.1037V53.3972H14.9736H9.19141Z" fill="#ECECEC"/>
<path d="M25.7806 53.4363H11.6484" stroke="#001D67" stroke-width="2" stroke-linecap="round" stroke-linejoin="round"/>
<path fill-rule="evenodd" clip-rule="evenodd" d="M27.2695 34.8079H33.1837V29.8854C33.1837 28.1282 31.8598 26.7036 30.2267 26.7036C28.5935 26.7036 27.2695 28.1282 27.2695 29.8854V34.8079Z" fill="#ECECEC"/>
<path opacity="0.428316" d="M32.6052 26.7035L31.0884 34.8091H28.7383L30.2551 26.7035H32.6052Z" fill="white"/>
<path fill-rule="evenodd" clip-rule="evenodd" d="M27.2695 34.8079H33.1837V29.8854C33.1837 28.1282 31.8598 26.7036 30.2267 26.7036C28.5935 26.7036 27.2695 28.1282 27.2695 29.8854V34.8079Z" stroke="#001D67" stroke-width="2" stroke-linecap="round" stroke-linejoin="round"/>
<path d="M26.7246 34.808H33.7297" stroke="#001D67" stroke-width="2" stroke-linecap="round" stroke-linejoin="round"/>
<path fill-rule="evenodd" clip-rule="evenodd" d="M26.3594 34.9668H33.9961V35.675C33.9961 36.0914 33.7109 36.4443 33.3275 36.5019L27.2429 37.4174C26.8184 37.4812 26.4262 37.1628 26.3668 36.7061C26.3619 36.6677 26.3594 36.6291 26.3594 36.5904V34.9668Z" fill="#4A4A4A" fill-opacity="0.08"/>
<path fill-rule="evenodd" clip-rule="evenodd" d="M14.4688 34.8079H20.3829V26.7036H14.4688V34.8079Z" fill="white"/>
<path opacity="0.428316" d="M19.8024 38.3563L18.2856 46.4619H15.9355L17.4524 38.3563H19.8024Z" fill="white"/>
<path d="M20.3829 32.9836V26.7036H14.4688V34.8079H20.3829" stroke="#001D67" stroke-width="2" stroke-linecap="round" stroke-linejoin="round"/>
<path d="M13.9238 34.808H20.929" stroke="#001D67" stroke-width="2" stroke-linecap="round" stroke-linejoin="round"/>
<path fill-rule="evenodd" clip-rule="evenodd" d="M14.4688 48.5171H20.3829V40.4127H14.4688V48.5171Z" fill="white"/>
<path d="M20.3829 46.6927V40.4127H14.4688V48.5171H20.3829" stroke="#001D67" stroke-width="2" stroke-linecap="round" stroke-linejoin="round"/>
<path d="M13.9238 48.5171H20.929" stroke="#001D67" stroke-width="2" stroke-linecap="round" stroke-linejoin="round"/>
<path fill-rule="evenodd" clip-rule="evenodd" d="M14.4688 68.3951H20.3829V60.2909H14.4688V68.3951Z" fill="white"/>
<path fill-rule="evenodd" clip-rule="evenodd" d="M20.3829 60.2909H14.4688V67.1455H20.3829V60.2909Z" stroke="#001D67" stroke-width="2" stroke-linecap="round" stroke-linejoin="round"/>
<path fill-rule="evenodd" clip-rule="evenodd" d="M27.2695 49.2027H33.1837V44.2802C33.1837 42.5229 31.8598 41.0983 30.2267 41.0983C28.5935 41.0983 27.2695 42.5229 27.2695 44.2802V49.2027Z" fill="#ECECEC"/>
<path opacity="0.428316" d="M32.6052 41.0981L31.0884 49.2037H28.7383L30.2551 41.0981H32.6052Z" fill="white"/>
<path fill-rule="evenodd" clip-rule="evenodd" d="M27.2695 49.2027H33.1837V44.2802C33.1837 42.5229 31.8598 41.0983 30.2267 41.0983C28.5935 41.0983 27.2695 42.5229 27.2695 44.2802V49.2027Z" stroke="#001D67" stroke-width="2" stroke-linecap="round" stroke-linejoin="round"/>
<path d="M26.7246 49.2026H33.7297" stroke="#001D67" stroke-width="2" stroke-linecap="round" stroke-linejoin="round"/>
<path fill-rule="evenodd" clip-rule="evenodd" d="M26.3594 49.3615H33.9961V50.0697C33.9961 50.4863 33.7109 50.8388 33.3275 50.897L27.2429 51.8124C26.8184 51.8756 26.4262 51.5572 26.3668 51.1007C26.3619 51.0625 26.3594 51.0234 26.3594 50.9851V49.3615Z" fill="#4A4A4A" fill-opacity="0.08"/>
<path fill-rule="evenodd" clip-rule="evenodd" d="M42.4883 68.3951H47.2196V60.2909H42.4883V68.3951Z" fill="#DADADA"/>
<path fill-rule="evenodd" clip-rule="evenodd" d="M42.4883 73.8795H47.2196V62.2232C47.2196 61.7617 46.8722 61.3876 46.4436 61.3876H43.2643C42.8357 61.3876 42.4883 61.7617 42.4883 62.2232V73.8795Z" fill="#ECECEC" stroke="#001D67" stroke-width="2" stroke-linecap="round" stroke-linejoin="round"/>
<path fill-rule="evenodd" clip-rule="evenodd" d="M27.3516 68.3951H33.1014V60.2909H27.3516V68.3951Z" fill="#F7F7F7"/>
<path opacity="0.428316" d="M32.5369 60.2909L31.0622 68.3968H28.7773L30.252 60.2909H32.5369Z" fill="white"/>
<path d="M27.3516 68.3951H32.3254C32.754 68.3951 33.1014 68.0218 33.1014 67.5604V61.1265C33.1014 60.6651 32.754 60.2909 32.3254 60.2909H28.1276C27.699 60.2909 27.3516 60.6651 27.3516 61.1265V66.8079" stroke="#001D67" stroke-width="2" stroke-linecap="round" stroke-linejoin="round"/>
<path fill-rule="evenodd" clip-rule="evenodd" d="M42.3906 34.8079H47.3191V29.3551C47.3191 27.8908 46.2158 26.7036 44.8549 26.7036C43.4939 26.7036 42.3906 27.8908 42.3906 29.3551V34.8079Z" fill="#ECECEC"/>
<path opacity="0.428316" d="M46.8377 26.7035L45.5736 34.8091H43.6152L44.8792 26.7035H46.8377Z" fill="white"/>
<path d="M42.3906 31.2909V34.8079H47.3191V29.3551C47.3191 27.8908 46.2158 26.7036 44.8549 26.7036C43.4939 26.7036 42.3906 27.8908 42.3906 29.3551V29.4486" stroke="#001D67" stroke-width="2" stroke-linecap="round" stroke-linejoin="round"/>
<path d="M41.9375 34.808H47.7751" stroke="#001D67" stroke-width="2" stroke-linecap="round" stroke-linejoin="round"/>
<path fill-rule="evenodd" clip-rule="evenodd" d="M41.6309 34.9668H47.9948V35.6947C47.9948 36.1027 47.721 36.4508 47.3472 36.5183L42.5353 37.387C42.1126 37.4633 41.7125 37.1565 41.6416 36.7017C41.6344 36.656 41.6309 36.6098 41.6309 36.5635V34.9668Z" fill="#4A4A4A" fill-opacity="0.08"/>
<path fill-rule="evenodd" clip-rule="evenodd" d="M42.3906 49.2027H47.3191V43.7499C47.3191 42.2854 46.2158 41.0983 44.8549 41.0983C43.4939 41.0983 42.3906 42.2854 42.3906 43.7499V49.2027Z" fill="#ECECEC"/>
<path opacity="0.428316" d="M46.8377 41.0981L45.5736 49.2037H43.6152L44.8792 41.0981H46.8377Z" fill="white"/>
<path fill-rule="evenodd" clip-rule="evenodd" d="M42.3906 49.2027H47.3191V43.7499C47.3191 42.2854 46.2158 41.0983 44.8549 41.0983C43.4939 41.0983 42.3906 42.2854 42.3906 43.7499V49.2027Z" stroke="#001D67" stroke-width="2" stroke-linecap="round" stroke-linejoin="round"/>
<path d="M41.9375 49.2026H47.7751" stroke="#001D67" stroke-width="2" stroke-linecap="round" stroke-linejoin="round"/>
<path fill-rule="evenodd" clip-rule="evenodd" d="M41.6309 49.3615H47.9948V50.0896C47.9948 50.4971 47.721 50.8454 47.3472 50.9128L42.5353 51.7817C42.1126 51.8582 41.7125 51.5514 41.6416 51.0965C41.6344 51.0508 41.6309 51.0043 41.6309 50.9585V49.3615Z" fill="#4A4A4A" fill-opacity="0.08"/>
<path d="M51.1773 21.5426L39.0859 21.5825" stroke="#001D67" stroke-width="2" stroke-linecap="round" stroke-linejoin="round"/>
<path opacity="0.61556" fill-rule="evenodd" clip-rule="evenodd" d="M38.4498 23.9617H9.17578V21.2198H38.4498V23.9617Z" fill="#4A4A4A" fill-opacity="0.08"/>
<path d="M9.49414 21.9054V45.042M9.49414 47.2882V73.8005M9.51308 21.9054H23.8129" stroke="#001D67" stroke-width="2" stroke-linecap="round" stroke-linejoin="round"/>
<path fill-rule="evenodd" clip-rule="evenodd" d="M39.2344 22.3959V18.8154H48.0616H50.9406V22.3959H39.2344Z" fill="#DADADA"/>
<path d="M38.0527 18.4863H50.8785C51.17 18.4863 51.4063 18.8067 51.4063 19.2019V21.054C51.4063 21.4492 51.17 21.7696 50.8785 21.7696H38.0527" stroke="#001D67" stroke-width="2" stroke-linecap="round" stroke-linejoin="round"/>
<path d="M38.0071 21.7696C38.4215 21.7696 38.7574 21.4082 38.7574 20.9623V19.313C38.7574 18.8519 38.4099 18.478 37.9813 18.478H26.4141" stroke="#001D67" stroke-width="2" stroke-linecap="round" stroke-linejoin="round"/>
<path opacity="0.61556" fill-rule="evenodd" clip-rule="evenodd" d="M51.177 23.9617H38.4492V21.2198H51.177V23.9617Z" fill="#4A4A4A" fill-opacity="0.08"/>
<path d="M48.6324 55.1499H40.3594" stroke="#001D67" stroke-width="2" stroke-linecap="round" stroke-linejoin="round"/>
<path d="M38.4492 21.9054V51.9513M51.177 59.9192V22.2711M38.4492 74H51.177V62.6323L38.4492 74Z" stroke="#001D67" stroke-width="2" stroke-linecap="round" stroke-linejoin="round"/>
<path d="M38.1309 52.0652V71.9438" stroke="#001D67" stroke-width="2" stroke-linecap="round" stroke-linejoin="round"/>
<path d="M64.0762 47.3257V73.6907H81.1031L81.0208 4.18811H64.0762V45.16V47.3257Z" fill="#ECECEC"/>
<path d="M25.4277 24.1341V48.5854H64.1316V4.30835L25.4277 4.38526V22.2042" fill="#FCFCFC"/>
<path fill-rule="evenodd" clip-rule="evenodd" d="M32.9375 21.6003H40.5671V14.9902C40.5671 12.7232 38.8592 10.8854 36.7523 10.8854C34.6455 10.8854 32.9375 12.7232 32.9375 14.9902V21.6003Z" fill="white"/>
<path fill-rule="evenodd" clip-rule="evenodd" d="M32.9375 21.6003H40.5671V14.9902C40.5671 12.7232 38.8592 10.8854 36.7523 10.8854C34.6455 10.8854 32.9375 12.7232 32.9375 14.9902V21.6003Z" stroke="#001D67" stroke-width="2" stroke-linecap="round" stroke-linejoin="round"/>
<path d="M32.2344 21.6003H41.2714" stroke="#001D67" stroke-width="2" stroke-linecap="round" stroke-linejoin="round"/>
<path fill-rule="evenodd" clip-rule="evenodd" d="M49.123 21.6003H56.7527V14.9902C56.7527 12.7232 55.0447 10.8854 52.9379 10.8854C50.831 10.8854 49.123 12.7232 49.123 14.9902V21.6003Z" fill="white"/>
<path fill-rule="evenodd" clip-rule="evenodd" d="M49.123 21.6003H56.7527V14.9902C56.7527 12.7232 55.0447 10.8854 52.9379 10.8854C50.831 10.8854 49.123 12.7232 49.123 14.9902V21.6003Z" stroke="#001D67" stroke-width="2" stroke-linecap="round" stroke-linejoin="round"/>
<path d="M48.418 21.6003H57.455" stroke="#001D67" stroke-width="2" stroke-linecap="round" stroke-linejoin="round"/>
<path fill-rule="evenodd" clip-rule="evenodd" d="M32.9375 41.1753H40.5671V34.5653C40.5671 32.2982 38.8592 30.4604 36.7523 30.4604C34.6455 30.4604 32.9375 32.2982 32.9375 34.5653V41.1753Z" fill="white"/>
<path opacity="0.05" d="M38.2679 30.4603L36.3111 41.1769H33.2793L35.2361 30.4603H38.2679Z" fill="#001D67"/>
<path opacity="0.05" d="M38.2679 10.8259L36.3111 21.5425H33.2793L35.2361 10.8259H38.2679Z" fill="#001D67"/>
<path opacity="0.05" d="M54.7854 10.8259L52.8287 21.5425H49.7969L51.7537 10.8259H54.7854Z" fill="#001D67"/>
<path opacity="0.05" d="M40.4856 33.3714V41.1768H37.9355L39.7096 32.1189L40.4856 33.3714Z" fill="#001D67"/>
<path opacity="0.05" d="M40.4856 13.737V21.5424H37.9355L39.7096 12.4845L40.4856 13.737Z" fill="#001D67"/>
<path opacity="0.05" d="M57.0032 13.737V21.5424H54.4531L56.2271 12.4845L57.0032 13.737Z" fill="#001D67"/>
<path d="M40.5671 38.7632V34.5653C40.5671 32.2982 38.8592 30.4604 36.7523 30.4604C34.6455 30.4604 32.9375 32.2982 32.9375 34.5653V41.1753H40.5671" stroke="#001D67" stroke-width="2" stroke-linecap="round" stroke-linejoin="round"/>
<path d="M32.2344 41.1754H41.2714" stroke="#001D67" stroke-width="2" stroke-linecap="round" stroke-linejoin="round"/>
<path fill-rule="evenodd" clip-rule="evenodd" d="M49.123 41.1753H56.7527V34.5653C56.7527 32.2982 55.0447 30.4604 52.9379 30.4604C50.831 30.4604 49.123 32.2982 49.123 34.5653V41.1753Z" fill="white"/>
<path fill-rule="evenodd" clip-rule="evenodd" d="M49.123 41.1753H56.7527V34.5653C56.7527 32.2982 55.0447 30.4604 52.9379 30.4604C50.831 30.4604 49.123 32.2982 49.123 34.5653V41.1753Z" stroke="#001D67" stroke-width="2" stroke-linecap="round" stroke-linejoin="round"/>
<path d="M48.418 41.1754H57.455" stroke="#001D67" stroke-width="2" stroke-linecap="round" stroke-linejoin="round"/>
<path fill-rule="evenodd" clip-rule="evenodd" d="M25.7793 48.5854V73.9609H81.1022V48.5854H30.2276H25.7793Z" fill="#ECECEC"/>
<path fill-rule="evenodd" clip-rule="evenodd" d="M32.9375 66.551H40.5671V55.8359H32.9375V66.551Z" fill="#ECECEC"/>
<path opacity="0.428316" d="M39.8186 55.8359L37.8619 66.5518H34.8301L36.7868 55.8359H39.8186Z" fill="white"/>
<path fill-rule="evenodd" clip-rule="evenodd" d="M32.9375 66.551H40.5671V55.8359H32.9375V66.551Z" fill="white" stroke="#001D67" stroke-width="2" stroke-linecap="round" stroke-linejoin="round"/>
<path opacity="0.05" d="M38.4886 55.9174L36.5318 66.6332H33.5L35.4568 55.9174H38.4886Z" fill="#001D67"/>
<path opacity="0.05" d="M40.7063 58.8283V66.6333H38.1562L39.9303 57.5753L40.7063 58.8283Z" fill="#001D67"/>
<path fill-rule="evenodd" clip-rule="evenodd" d="M69.3613 73.8005H75.9009V57.286H69.3613V73.8005Z" fill="#F7F7F7" stroke="#001D67" stroke-width="2" stroke-linecap="round" stroke-linejoin="round"/>
<path fill-rule="evenodd" clip-rule="evenodd" d="M49.123 66.551H56.7527V55.8359H49.123V66.551Z" fill="white"/>
<path opacity="0.05" d="M54.01 55.9174L52.0533 66.6332H49.0215L50.9783 55.9174H54.01Z" fill="#001D67"/>
<path opacity="0.05" d="M56.2278 58.8283V66.6333H53.6777L55.4517 57.5753L56.2278 58.8283Z" fill="#001D67"/>
<path d="M49.123 66.551H56.7527V55.8359H49.123V64.4515" stroke="#001D67" stroke-width="2" stroke-linecap="round" stroke-linejoin="round"/>
<path fill-rule="evenodd" clip-rule="evenodd" d="M69.3613 21.6003H75.9009V14.4038C75.9009 12.4607 74.4373 10.8854 72.6315 10.8854C70.8257 10.8854 69.3613 12.4607 69.3613 14.4038V21.6003Z" fill="white"/>
<path opacity="0.05" d="M74.1856 10.8259L72.2292 21.5425H69.1973L71.1536 10.8259H74.1856Z" fill="#001D67"/>
<path opacity="0.05" d="M76.4036 13.737V21.5424H73.8535L75.6275 12.4845L76.4036 13.737Z" fill="#001D67"/>
<path d="M69.3613 16.9503V21.6003H75.9009V14.4038C75.9009 12.4607 74.4373 10.8854 72.6315 10.8854C70.8257 10.8854 69.3613 12.4607 69.3613 14.4038V14.5146" stroke="#001D67" stroke-width="2" stroke-linecap="round" stroke-linejoin="round"/>
<path d="M68.7598 21.6003H76.5053" stroke="#001D67" stroke-width="2" stroke-linecap="round" stroke-linejoin="round"/>
<path fill-rule="evenodd" clip-rule="evenodd" d="M69.3613 41.1753H75.9009V33.9789C75.9009 32.0357 74.4373 30.4604 72.6315 30.4604C70.8257 30.4604 69.3613 32.0357 69.3613 33.9789V41.1753Z" fill="white"/>
<path fill-rule="evenodd" clip-rule="evenodd" d="M69.3613 41.1753H75.9009V33.9789C75.9009 32.0357 74.4373 30.4604 72.6315 30.4604C70.8257 30.4604 69.3613 32.0357 69.3613 33.9789V41.1753Z" stroke="#001D67" stroke-width="2" stroke-linecap="round" stroke-linejoin="round"/>
<path d="M68.7598 41.1754H76.5053" stroke="#001D67" stroke-width="2" stroke-linecap="round" stroke-linejoin="round"/>
<path d="M81.0214 3.96753L64.6875 4.00977" stroke="#001D67" stroke-width="2" stroke-linecap="round" stroke-linejoin="round"/>
<path opacity="0.61556" fill-rule="evenodd" clip-rule="evenodd" d="M64.1316 7.29371H25.4277V3.6687H64.1316V7.29371Z" fill="#4A4A4A" fill-opacity="0.08"/>
<path d="M25.7246 4.13367V13.0602M25.7246 15.7303V16.1902M25.7246 18.5807V71.0608" stroke="#001D67" stroke-width="2" stroke-linecap="round" stroke-linejoin="round"/>
<path fill-rule="evenodd" clip-rule="evenodd" d="M64.1406 4.83452V0.416382H77.0972H81.3227V4.83452H64.1406Z" fill="#DADADA"/>
<path d="M64.1367 0.0101318H81.2389C81.6277 0.0101318 81.9427 0.405495 81.9427 0.89323V3.17867C81.9427 3.6664 81.6277 4.06168 81.2389 4.06168H64.1367" stroke="#001D67" stroke-width="2" stroke-linecap="round" stroke-linejoin="round"/>
<path fill-rule="evenodd" clip-rule="evenodd" d="M25.1719 4.10949V0.416382H54.9009H64.4042V4.10949H25.1719Z" fill="#ECECEC"/>
<path d="M58.3214 4.06178H25.5592C25.1306 4.06178 24.7832 3.68795 24.7832 3.22674V0.835036C24.7832 0.373825 25.1306 0 25.5592 0C32.1291 0 38.699 0 45.2688 0C49.8212 0 55.3791 0 61.9426 0" stroke="#001D67" stroke-width="2" stroke-linecap="round" stroke-linejoin="round"/>
<path d="M60.4498 4.06178H63.8909V0H48.6172" stroke="#001D67" stroke-width="2" stroke-linecap="round" stroke-linejoin="round"/>
<path opacity="0.61556" fill-rule="evenodd" clip-rule="evenodd" d="M81.5438 7.29378H64.7148V3.92761H81.5438V7.29378Z" fill="#4A4A4A" fill-opacity="0.08"/>
<path d="M63.4289 48.5854H28.8496" stroke="#001D67" stroke-width="2" stroke-linecap="round" stroke-linejoin="round"/>
<path d="M78.2068 48.5854H66.8496" stroke="#001D67" stroke-width="2" stroke-linecap="round" stroke-linejoin="round"/>
<path d="M64.0762 73.9609H81.1038V58.7352M81.1038 55.1009V4.67792M64.0762 4.18811V44.4296" stroke="#001D67" stroke-width="2" stroke-linecap="round" stroke-linejoin="round"/>
<path d="M64.0762 44.9601V71.7859" stroke="#001D67" stroke-width="2" stroke-linecap="round" stroke-linejoin="round"/>
<path d="M5.33203 74.0001L89.3747 73.9934" stroke="#001D67" stroke-width="2" stroke-linecap="round"/>
<path d="M2.67808 74H0.626953" stroke="#001D67" stroke-width="2" stroke-linecap="round"/>
<path opacity="0.05" d="M54.7854 30.3306L52.8287 41.0014H49.7969L51.7537 30.3306H54.7854Z" fill="#001D67"/>
<path opacity="0.05" d="M73.0781 30.7349L71.2513 40.7124H68.4219L70.2486 30.7349H73.0781Z" fill="#001D67"/>
<path opacity="0.05" d="M57.0032 33.2292V41.0013H54.4531L56.2271 31.9821L57.0032 33.2292Z" fill="#001D67"/>
<path opacity="0.05" d="M75.4062 33.5476V40.7124H73.0781L74.6977 32.3978L75.4062 33.5476Z" fill="#001D67"/>
</g>
<defs>
<clipPath id="clip0_1153_15021">
<rect width="88.7479" height="74" fill="white" transform="translate(0.626953)"/>
</clipPath>
</defs>
</svg>
